# Blender v2.90.1 OBJ File: 'tree.blend'
# www.blender.org
mtllib tree.mtl
o Cone.000_Cone.009
v 0.000000 0.218894 -0.408677
v 0.353925 0.218894 0.204339
v 0.000000 0.908613 0.000000
v -0.353925 0.218894 0.204339
v 0.000000 -0.034351 -0.408677
v 0.353925 -0.034351 0.204339
v 0.000000 0.655368 0.000000
v -0.353925 -0.034351 0.204339
v 0.000000 -0.294831 -0.408677
v 0.353925 -0.294831 0.204339
v 0.000000 0.394887 0.000000
v -0.353925 -0.294831 0.204339
v 0.000000 -0.579430 -0.129186
v 0.111878 -0.579430 0.064593
v 0.000000 0.110288 0.000000
v -0.111878 -0.579430 0.064593
vn 0.8623 0.0932 -0.4978
vn 0.0000 0.0932 0.9956
vn -0.8623 0.0932 -0.4978
vn 0.0000 -1.0000 0.0000
vn 0.8304 0.2841 -0.4794
vn -0.0000 0.2841 0.9588
vn -0.8304 0.2841 -0.4794
usemtl Material.002
s off
f 13//1 15//1 14//1
f 14//2 15//2 16//2
f 16//3 15//3 13//3
f 13//4 14//4 16//4
usemtl Material.005
f 1//5 3//5 2//5
f 2//6 3//6 4//6
f 4//7 3//7 1//7
f 1//4 2//4 4//4
f 5//5 7//5 6//5
f 6//6 7//6 8//6
f 8//7 7//7 5//7
f 5//4 6//4 8//4
f 9//5 11//5 10//5
f 10//6 11//6 12//6
f 12//7 11//7 9//7
f 9//4 10//4 12//4
